<?xml version="1.0" encoding="UTF-8"?>
<!DOCTYPE svg PUBLIC "-//W3C//DTD SVG 1.1//EN" "http://www.w3.org/Graphics/SVG/1.1/DTD/svg11.dtd">
<svg xmlns="http://www.w3.org/2000/svg" version="1.1" width="512px" height="512px" style="shape-rendering:geometricPrecision; text-rendering:geometricPrecision; image-rendering:optimizeQuality; fill-rule:evenodd; clip-rule:evenodd" xmlns:xlink="http://www.w3.org/1999/xlink">
<g><path style="opacity:0.996" fill="#000000" d="M 214.5,23.5 C 295.167,23.3333 375.834,23.5 456.5,24C 472.667,28.1667 482.833,38.3333 487,54.5C 487.667,188.5 487.667,322.5 487,456.5C 482.833,472.667 472.667,482.833 456.5,487C 375.833,487.667 295.167,487.667 214.5,487C 198.333,482.833 188.167,472.667 184,456.5C 183.833,448.5 183.667,440.5 183.5,432.5C 183.375,423.429 183.875,414.429 185,405.5C 193.843,390.955 206.009,387.455 221.5,395C 226.252,398.414 229.419,402.914 231,408.5C 231.5,418.828 231.666,429.161 231.5,439.5C 300.833,439.5 370.167,439.5 439.5,439.5C 439.5,316.833 439.5,194.167 439.5,71.5C 370.167,71.5 300.833,71.5 231.5,71.5C 231.666,81.8387 231.5,92.172 231,102.5C 225.543,116.482 215.376,121.982 200.5,119C 193.481,116.649 188.314,112.149 185,105.5C 183.875,96.5713 183.375,87.5713 183.5,78.5C 178.671,51.1191 189.005,32.7858 214.5,23.5 Z"/></g>
<g><path style="opacity:0.989" fill="#000000" d="M 271.5,140.5 C 278.759,139.593 285.426,141.093 291.5,145C 323.667,177.167 355.833,209.333 388,241.5C 392.667,250.833 392.667,260.167 388,269.5C 355.833,301.667 323.667,333.833 291.5,366C 275.202,374.303 262.702,370.47 254,354.5C 251.408,346.336 252.408,338.669 257,331.5C 274.167,314.333 291.333,297.167 308.5,280C 219.167,279.667 129.833,279.333 40.5,279C 25.2416,272.644 20.0749,261.477 25,245.5C 28.3141,238.851 33.4808,234.351 40.5,232C 129.833,231.667 219.167,231.333 308.5,231C 290.305,213.138 272.471,194.972 255,176.5C 249.073,159.073 254.573,147.073 271.5,140.5 Z"/></g>
</svg>
